<svg xmlns="http://www.w3.org/2000/svg" viewBox="0 0 512 512" width="512" height="512">
  <rect width="512" height="512" rx="96" fill="#1d1d1f"/>
  <g transform="translate(256,256)">
    <!-- Stylized crow silhouette -->
    <path d="M-60,-120 C-30,-140 30,-140 60,-120 C90,-100 100,-60 90,-20 C80,20 60,60 80,100 C60,120 20,130 0,120 C-20,130 -60,120 -80,100 C-60,60 -80,20 -90,-20 C-100,-60 -90,-100 -60,-120 Z" fill="#f5f5f7"/>
    <!-- Eye -->
    <circle cx="25" cy="-60" r="12" fill="#1d1d1f"/>
    <circle cx="28" cy="-63" r="4" fill="#f5f5f7"/>
    <!-- Beak -->
    <path d="M70,-50 L110,-40 L70,-30 Z" fill="#e8a838"/>
    <!-- Wing detail -->
    <path d="M-40,-40 C-80,-20 -100,20 -80,60 C-60,30 -40,0 -20,-30 Z" fill="rgba(0,0,0,0.15)"/>
  </g>
</svg>
